<?xml version="1.0" standalone="no"?>
<!DOCTYPE svg PUBLIC "-//W3C//DTD SVG 20010904//EN"
 "http://www.w3.org/TR/2001/REC-SVG-20010904/DTD/svg10.dtd">
<svg version="1.0" xmlns="http://www.w3.org/2000/svg"
 width="768.000000pt" height="768.000000pt" viewBox="0 0 768.000000 768.000000"
 preserveAspectRatio="xMidYMid meet">

<g transform="translate(0.000000,768.000000) scale(0.100000,-0.100000)"
fill="#46eac8" stroke="none">
<path d="M971 7539 c-138 -23 -326 -106 -439 -193 -74 -56 -177 -166 -225
-239 -56 -84 -121 -228 -151 -334 l-26 -92 0 -2821 c0 -1980 3 -2834 11 -2868
100 -441 371 -734 763 -827 l107 -25 2857 2 2857 3 80 23 c102 30 256 106 331
164 76 59 196 185 238 251 81 127 138 270 157 392 5 35 9 1251 9 2895 0 2801
0 2837 -20 2914 -100 392 -408 682 -798 751 -64 12 -539 14 -2887 13 -1601 0
-2833 -4 -2864 -9z m3110 -514 c225 -20 361 -42 529 -85 368 -94 693 -238
1030 -458 120 -79 150 -108 150 -149 0 -41 -38 -83 -75 -83 -16 0 -84 38 -178
101 -255 170 -597 325 -899 409 -125 34 -362 78 -523 96 -115 12 -198 15 -355
10 -242 -6 -354 -22 -590 -81 -217 -54 -308 -84 -429 -141 -51 -24 -103 -44
-115 -44 -55 0 -92 68 -63 114 20 29 124 84 257 134 247 93 496 150 750 172
69 5 141 12 160 14 84 7 197 5 351 -9z m114 -454 c66 -12 149 -28 184 -37 36
-9 72 -17 80 -19 37 -8 214 -67 313 -104 224 -83 348 -158 450 -270 75 -83 87
-87 156 -62 80 29 162 47 267 61 170 21 308 51 427 91 240 82 387 163 551 302
31 27 57 47 57 44 0 -2 -20 -47 -44 -99 -72 -154 -89 -236 -83 -403 3 -78 13
-171 22 -210 24 -99 29 -164 16 -210 -10 -38 -9 -42 68 -169 102 -171 157
-276 219 -416 99 -225 185 -525 208 -725 2 -22 12 -85 21 -140 33 -202 19
-693 -28 -935 -82 -426 -241 -851 -460 -1231 -154 -267 -210 -460 -162 -561
10 -20 43 -56 74 -80 75 -58 185 -158 173 -158 -5 0 -71 27 -148 60 -162 71
-367 141 -481 165 -45 10 -165 20 -275 25 -239 10 -358 35 -429 91 -13 10 -31
19 -40 19 -9 0 -43 -30 -76 -66 -104 -113 -250 -210 -465 -309 -282 -129 -563
-185 -931 -185 -467 0 -877 96 -1174 275 -77 47 -114 82 -181 175 -89 124 -75
115 -125 81 -66 -44 -205 -78 -334 -82 -111 -3 -396 -56 -520 -96 -217 -70
-326 -117 -435 -187 -40 -26 -74 -46 -75 -44 -2 2 12 35 30 73 68 141 83 251
65 468 -13 160 -8 220 27 334 l15 52 -78 128 c-286 472 -444 911 -500 1393 -2
19 -8 71 -13 115 -15 123 -12 274 9 455 29 255 46 345 95 525 71 255 167 475
285 653 l61 92 44 0 c38 0 47 -4 69 -33 34 -45 33 -68 -8 -136 -113 -186 -253
-526 -281 -680 -2 -13 -13 -64 -24 -115 -35 -164 -41 -199 -57 -366 -41 -424
36 -868 231 -1339 78 -189 224 -451 303 -543 16 -18 38 -49 49 -69 21 -36 21
-37 2 -90 -24 -71 -23 -85 9 -143 43 -77 55 -80 108 -22 25 27 53 66 63 85 16
32 88 261 105 332 5 22 -5 38 -61 100 -37 41 -72 79 -79 84 -7 6 -38 48 -70
95 -127 189 -232 472 -302 815 -37 179 -40 210 -48 408 -7 160 -1 226 42 477
22 128 85 361 130 477 58 153 71 182 125 288 224 442 567 829 974 1101 106 70
389 217 505 262 119 46 379 112 515 132 250 35 639 36 840 1z m1181 -5376 c27
-41 11 -71 -64 -119 -142 -92 -366 -190 -568 -250 -140 -42 -183 -51 -319 -72
-146 -22 -151 -22 -385 -35 -216 -11 -459 -3 -590 20 -30 5 -95 15 -145 22
-271 36 -674 162 -782 245 -40 31 -45 74 -11 98 34 24 58 20 181 -28 139 -54
282 -99 407 -126 52 -11 109 -24 125 -29 17 -5 66 -15 110 -21 44 -6 103 -15
130 -21 68 -13 330 -28 493 -29 168 0 421 26 567 60 125 28 261 65 340 92 105
35 315 133 377 176 74 50 109 55 134 17z"/>
<path d="M6238 5718 c-47 -81 -97 -201 -98 -235 0 -12 -4 -25 -10 -28 -14 -8
-13 -150 1 -194 18 -57 23 -64 85 -112 37 -28 67 -61 81 -90 25 -50 172 -522
202 -649 37 -155 41 -174 56 -330 24 -230 22 -476 -4 -630 -18 -107 -64 -268
-92 -320 -5 -10 3 -37 21 -75 35 -71 67 -165 76 -224 7 -41 37 -91 55 -91 5 0
32 21 59 46 43 40 51 44 71 34 27 -15 30 -10 57 79 52 170 77 276 97 411 9 58
21 125 26 150 6 25 13 167 16 315 5 239 3 288 -16 425 -68 493 -219 900 -475
1280 -56 83 -67 120 -47 158 4 9 11 29 15 45 6 25 1 30 -55 67 -34 22 -66 40
-70 40 -5 0 -27 -33 -51 -72z"/>
<path d="M4815 5750 c-265 -22 -629 -121 -878 -238 -88 -42 -121 -52 -129 -44
-18 18 3 48 107 159 51 54 91 100 89 102 -1 2 -56 -28 -121 -67 -65 -38 -167
-99 -228 -134 -60 -36 -150 -91 -199 -122 -50 -31 -94 -56 -98 -56 -24 0 -15
39 31 135 55 115 69 155 53 155 -6 0 -14 -4 -17 -10 -3 -5 -66 -53 -138 -105
-176 -126 -301 -224 -482 -374 -164 -136 -166 -136 -147 -34 5 27 5 58 1 69
-4 10 -8 35 -8 55 -1 42 -27 72 -41 48 -5 -8 -14 -35 -20 -61 -15 -70 -61
-164 -116 -239 -27 -36 -69 -95 -93 -132 -24 -37 -50 -67 -57 -67 -22 0 -17
57 11 146 33 105 32 117 -8 74 -38 -41 -86 -116 -114 -180 -16 -37 -17 -53
-10 -90 7 -31 6 -59 -2 -90 -18 -65 -54 -140 -68 -140 -19 0 -16 95 3 147 12
31 14 50 7 65 -9 20 -12 18 -53 -37 -51 -69 -110 -200 -110 -244 0 -17 12 -49
26 -71 20 -31 25 -47 20 -71 -11 -56 -44 -97 -101 -123 -29 -14 -56 -35 -60
-45 -13 -41 -112 -107 -131 -88 -9 9 6 45 32 76 22 27 23 31 9 45 -24 23 -85
36 -127 27 -110 -25 -198 -138 -198 -253 0 -40 7 -60 36 -104 32 -48 35 -59
28 -92 -4 -20 -8 -43 -10 -51 -1 -7 -7 -18 -13 -24 -42 -42 47 -161 143 -193
87 -29 189 -44 206 -29 37 30 94 43 154 34 57 -7 60 -7 125 34 36 22 86 56
111 74 206 153 229 165 350 172 l95 6 85 65 c47 36 112 79 145 97 62 33 61 37
-9 47 -22 3 -43 11 -48 18 -4 7 -8 10 -8 6 0 -10 -87 21 -99 36 -9 10 10 27
84 75 81 54 135 103 135 125 0 4 -9 2 -21 -4 -11 -6 -48 -15 -82 -19 -55 -8
-57 -9 -19 -10 48 -1 48 -13 -1 -35 -143 -66 -232 -111 -258 -133 -22 -17
-129 -45 -176 -45 -34 0 -53 -7 -89 -34 -37 -28 -48 -32 -64 -24 -11 6 -20 13
-20 16 0 16 25 46 75 88 45 39 58 46 70 36 17 -14 85 -5 128 17 69 35 120 126
133 237 6 51 8 54 48 71 22 10 70 32 106 48 41 18 84 30 116 31 43 1 58 7 103
44 57 45 62 46 131 32 40 -7 54 -5 121 25 72 32 144 56 179 61 8 1 44 12 80
23 58 19 76 33 175 130 109 106 162 148 260 204 l50 28 -55 -4 c-30 -3 -91
-16 -135 -30 -44 -14 -102 -30 -129 -36 -51 -13 -99 -36 -154 -76 -49 -35
-101 -41 -151 -16 -49 26 -51 39 -11 117 16 32 27 60 25 63 -3 2 -16 -7 -29
-20 -13 -13 -44 -34 -68 -46 -40 -21 -243 -103 -253 -103 -30 0 86 88 169 128
63 30 131 81 147 110 16 29 40 28 78 -4 26 -21 31 -33 31 -69 0 -28 -7 -51
-21 -69 -20 -25 -20 -26 -1 -26 11 0 49 14 86 30 56 26 195 69 271 85 41 9
243 57 319 76 43 12 86 22 95 24 47 9 118 50 166 96 45 42 56 49 61 35 9 -22
-22 -99 -54 -138 -14 -17 -61 -47 -106 -68 -45 -21 -128 -60 -186 -86 -124
-58 -249 -148 -285 -204 -14 -22 -25 -42 -25 -45 0 -3 12 -5 28 -5 49 0 181
-39 277 -81 l95 -42 43 40 c133 123 346 219 657 298 140 35 222 76 293 147 32
32 63 58 68 58 16 0 21 -46 9 -90 -26 -96 -152 -174 -455 -280 -82 -29 -184
-70 -225 -90 -78 -39 -250 -157 -250 -171 0 -4 10 -15 23 -24 77 -54 186 -185
237 -285 12 -25 24 -46 25 -48 2 -2 27 12 56 30 243 152 542 170 754 45 214
-126 355 -385 355 -654 0 -52 3 -63 20 -68 21 -7 50 -63 131 -257 29 -71 57
-128 61 -128 4 0 9 27 10 60 1 33 2 75 3 93 3 43 -13 230 -24 292 -30 167 -28
160 -101 385 -81 247 -181 441 -307 593 -50 60 -64 84 -61 105 2 22 9 28 36
30 29 3 294 -46 367 -69 196 -59 275 -84 311 -100 24 -10 44 -16 44 -12 0 18
-238 226 -364 317 -266 194 -527 331 -811 424 -33 11 -69 22 -80 24 -20 5 -20
5 -1 13 24 10 153 -7 220 -30 51 -18 69 -17 196 8 41 8 127 20 190 26 171 17
280 33 280 42 0 15 -221 69 -425 104 -49 8 -121 21 -160 27 -48 9 -187 13
-437 13 -203 0 -368 3 -368 7 0 22 341 248 376 248 7 0 16 5 19 10 3 6 5 9 3
8 -2 0 -43 -4 -93 -8z m-1890 -920 c4 -17 1 -53 -5 -81 -20 -82 -79 -135 -245
-220 -77 -39 -144 -76 -150 -80 -14 -14 -42 -11 -48 5 -3 8 19 46 49 87 30 40
62 85 70 101 12 24 20 28 57 28 83 0 201 84 229 163 13 36 35 34 43 -3z m-340
-599 c-8 -26 -31 -64 -49 -84 -32 -35 -35 -36 -66 -26 -17 6 -34 18 -37 26 -3
8 20 41 58 81 35 38 73 79 84 92 l20 25 3 -33 c2 -18 -4 -54 -13 -81z m-35
-265 c-45 -66 -101 -81 -154 -43 -24 18 -13 37 22 38 15 0 54 11 87 23 33 13
63 24 67 25 4 0 -6 -19 -22 -43z m-624 -244 c-7 -44 -19 -58 -74 -82 -34 -15
-48 -17 -58 -9 -20 16 -17 47 4 58 10 5 37 29 60 52 36 36 44 40 58 28 11 -9
14 -23 10 -47z"/>
<path d="M3492 4545 c-45 -19 -114 -56 -152 -82 -74 -50 -78 -59 -64 -131 l6
-31 182 3 c99 2 190 7 201 11 11 5 52 28 91 52 39 24 84 43 100 44 16 0 57 6
91 12 63 12 85 28 48 36 -11 2 -92 27 -180 56 -218 72 -222 72 -323 30z"/>
<path d="M3783 4293 c-13 -2 -23 -7 -23 -10 0 -3 17 -24 38 -48 70 -80 95
-150 79 -227 -10 -49 -30 -48 -50 2 -11 29 -21 40 -36 40 -20 0 -21 -5 -21
-102 0 -253 -100 -392 -391 -547 -150 -80 -171 -64 -43 34 74 57 88 75 59 75
-21 0 -88 35 -104 54 -16 19 4 59 59 117 22 23 40 44 40 46 0 1 -18 3 -39 3
-68 0 -215 -59 -319 -128 -29 -19 -55 -32 -58 -29 -8 8 13 45 53 95 20 24 34
44 32 45 -2 1 -26 20 -54 43 -27 22 -65 50 -83 63 -38 26 -36 27 -148 -60 -33
-25 -76 -55 -95 -64 -43 -23 -53 -35 -88 -110 -16 -33 -35 -68 -43 -79 -13
-16 -13 -24 -1 -59 8 -22 19 -88 25 -147 l11 -106 56 4 c67 4 97 -3 266 -62
151 -54 228 -59 367 -27 275 65 475 164 594 294 116 129 181 254 209 401 19
97 13 165 -21 258 -33 88 -71 139 -145 193 -58 43 -75 48 -126 38z"/>
<path d="M4965 4165 c-81 -18 -154 -48 -237 -97 -59 -35 -68 -44 -63 -62 4
-12 10 -64 14 -116 l6 -95 31 3 c47 5 161 -25 225 -59 74 -40 193 -163 247
-255 70 -120 95 -209 100 -356 4 -114 2 -135 -22 -217 -43 -150 -114 -269
-233 -388 -50 -51 -231 -183 -249 -183 -3 0 -39 -21 -81 -46 -41 -25 -77 -43
-80 -40 -3 3 66 76 153 163 226 225 296 323 346 483 33 110 31 273 -6 387 -44
134 -117 229 -231 298 -64 38 -186 80 -209 72 -8 -3 -19 -25 -24 -49 -6 -24
-21 -70 -33 -104 l-23 -60 27 -35 c71 -94 107 -233 107 -418 0 -112 -4 -141
-26 -213 -50 -157 -137 -300 -252 -410 -107 -103 -281 -211 -414 -258 -37 -13
-66 -26 -63 -28 11 -11 276 38 410 75 685 190 1118 574 1268 1123 50 182 16
427 -84 598 -50 85 -161 191 -245 235 -122 63 -235 80 -359 52z"/>
<path d="M4495 3273 c-62 -96 -247 -266 -353 -324 -26 -15 -30 -23 -36 -82
-20 -202 -162 -423 -379 -591 -73 -56 -234 -136 -355 -175 -93 -31 -117 -36
-222 -48 l-55 -7 50 -7 c28 -3 131 -7 230 -8 263 -2 370 21 577 125 324 163
540 400 614 676 27 98 24 264 -5 358 -12 41 -29 82 -36 92 -12 17 -13 17 -30
-9z m-45 -215 c54 -37 56 -47 20 -105 l-32 -52 -49 31 c-73 44 -78 60 -33 108
21 22 43 40 49 40 7 0 27 -10 45 -22z"/>
<path d="M1856 3031 c-25 -28 -55 -144 -56 -213 0 -123 49 -258 122 -330 88
-88 613 -316 816 -354 98 -19 286 -14 409 10 288 56 601 264 730 484 19 32 93
223 93 239 0 2 -21 -10 -47 -26 -109 -67 -365 -131 -549 -138 l-131 -6 -89
-86 c-96 -92 -219 -174 -319 -211 -97 -35 -197 -50 -343 -50 -143 0 -198 11
-252 53 l-25 19 26 -7 c37 -9 249 13 339 35 151 37 295 111 437 224 l42 34
-47 12 c-179 46 -283 96 -382 181 -39 34 -72 59 -73 58 -1 -2 -13 -25 -26 -52
-66 -130 -240 -205 -383 -163 -77 22 -142 83 -202 189 -69 124 -68 123 -90 98z
m1898 -342 c36 -28 33 -48 -14 -94 l-40 -39 -35 34 c-19 19 -35 39 -35 45 0 6
16 19 35 28 19 9 35 23 35 32 0 21 23 19 54 -6z"/>
</g>
</svg>
